<svg width="823" height="823" viewBox="0 0 823 823" fill="none" xmlns="http://www.w3.org/2000/svg">
<path d="M421.787 754.414H418.358C371.328 754.055 324.842 744.317 281.622 725.769C238.402 707.221 199.318 680.237 166.657 646.395C106.093 581.628 71.6649 496.723 70.0184 408.065C68.3719 319.408 99.6232 233.283 157.741 166.312C195.184 124.35 242.254 92.1073 294.908 72.3525C301.052 69.9884 307.746 69.4426 314.192 70.7804C320.637 72.1181 326.561 75.2829 331.257 79.8967C335.606 84.3313 338.668 89.8639 340.118 95.9035C341.567 101.943 341.349 108.263 339.487 114.188C320.694 165.658 316.97 221.42 328.754 274.931C340.537 328.443 367.338 377.483 406.013 416.298C445.048 454.854 494.205 481.564 547.792 493.338C601.38 505.111 657.207 501.466 708.808 482.824C714.95 480.662 721.581 480.293 727.924 481.761C734.268 483.229 740.063 486.472 744.631 491.112C749.199 495.752 752.352 501.597 753.72 507.963C755.088 514.329 754.616 520.953 752.359 527.06C734.841 573.824 707.475 616.276 672.116 651.539C639.225 684.332 600.177 710.302 557.218 727.957C514.258 745.612 468.233 754.603 421.787 754.414V754.414Z" fill="#DE4A66"/>
</svg>
