<svg width="824" height="824" viewBox="0 0 824 824" fill="none" xmlns="http://www.w3.org/2000/svg">
<path d="M411.709 0C382.89 0 360.246 22.644 360.246 51.4637C360.246 80.2833 382.89 102.927 411.709 102.927C440.529 102.927 463.173 80.2833 463.173 51.4637C463.173 22.644 440.529 0 411.709 0ZM154.391 102.927C125.571 102.927 102.927 125.571 102.927 154.391C102.927 183.211 125.571 205.855 154.391 205.855C183.211 205.855 205.855 183.211 205.855 154.391C205.855 125.571 183.211 102.927 154.391 102.927ZM669.027 102.927C640.208 102.927 617.564 125.571 617.564 154.391C617.564 183.211 640.208 205.855 669.027 205.855C697.847 205.855 720.491 183.211 720.491 154.391C720.491 125.571 697.847 102.927 669.027 102.927ZM411.709 205.855C298.489 205.855 205.855 298.489 205.855 411.709C205.855 524.929 298.489 617.564 411.709 617.564C524.929 617.564 617.564 524.929 617.564 411.709C617.564 298.489 524.929 205.855 411.709 205.855ZM51.4637 360.246C22.644 360.246 0 382.89 0 411.709C0 440.529 22.644 463.173 51.4637 463.173C80.2833 463.173 102.927 440.529 102.927 411.709C102.927 382.89 80.2833 360.246 51.4637 360.246ZM771.955 360.246C743.135 360.246 720.491 382.89 720.491 411.709C720.491 440.529 743.135 463.173 771.955 463.173C800.774 463.173 823.418 440.529 823.418 411.709C823.418 382.89 800.774 360.246 771.955 360.246ZM154.391 617.564C125.571 617.564 102.927 640.208 102.927 669.027C102.927 697.847 125.571 720.491 154.391 720.491C183.211 720.491 205.855 697.847 205.855 669.027C205.855 640.208 183.211 617.564 154.391 617.564ZM669.027 617.564C640.208 617.564 617.564 640.208 617.564 669.027C617.564 697.847 640.208 720.491 669.027 720.491C697.847 720.491 720.491 697.847 720.491 669.027C720.491 640.208 697.847 617.564 669.027 617.564ZM411.709 720.491C382.89 720.491 360.246 743.135 360.246 771.955C360.246 800.774 382.89 823.418 411.709 823.418C440.529 823.418 463.173 800.774 463.173 771.955C463.173 743.135 440.529 720.491 411.709 720.491Z" fill="white"/>
</svg>
