<svg width="641" height="641" viewBox="0 0 641 641" fill="none" xmlns="http://www.w3.org/2000/svg">
<circle cx="320.5" cy="320.5" r="320.5" fill="white"/>
<path d="M381.402 140.543C390.606 140.542 399.696 142.576 408.022 146.498C416.348 150.42 423.703 156.135 429.563 163.232C435.422 170.329 439.641 178.634 441.916 187.552C444.191 196.47 444.467 205.78 442.723 214.817L442.456 215.995C457.977 221.172 471.548 230.967 481.351 244.068C491.153 257.169 496.721 272.951 497.309 289.303C497.897 305.655 493.477 321.797 484.64 335.568C475.803 349.339 462.971 360.083 447.862 366.362L428.486 482.456C427.793 486.622 425.645 490.407 422.424 493.138C419.203 495.869 415.117 497.369 410.894 497.371H227.021C222.797 497.369 218.712 495.869 215.491 493.138C212.27 490.407 210.122 486.622 209.429 482.456L191.07 372.374C178.723 371.674 166.999 366.719 157.891 358.352C148.783 349.986 142.854 338.723 141.111 326.479C139.369 314.235 141.92 301.765 148.331 291.189C154.742 280.613 164.618 272.584 176.28 268.466L176.226 265.433C176.223 247.368 180.791 229.596 189.506 213.771C198.221 197.947 210.798 184.586 226.067 174.932C241.337 165.278 258.801 159.645 276.833 158.558C294.866 157.471 312.88 160.965 329.198 168.715C334.877 160.054 342.623 152.944 351.737 148.026C360.851 143.108 371.046 140.536 381.402 140.543V140.543ZM265.433 372.482H227.253L242.132 461.689H265.433V372.482ZM336.799 372.482H301.116V461.689H336.799V372.482ZM410.644 372.482H372.482V461.689H395.765L410.644 372.482ZM283.275 194.067C245.058 194.067 213.854 224.112 211.998 261.276L211.909 264.791L211.963 267.824C212.089 274.83 210.149 281.718 206.386 287.629C202.623 293.539 197.204 298.212 190.803 301.062L188.126 302.115C184.165 303.526 180.828 306.289 178.704 309.918C176.58 313.547 175.804 317.81 176.514 321.955C177.224 326.1 179.374 329.861 182.585 332.576C185.796 335.292 189.862 336.787 194.068 336.799H417.085C423.68 336.799 430.192 335.336 436.154 332.517C442.116 329.698 447.378 325.591 451.562 320.494C455.746 315.396 458.747 309.435 460.35 303.038C461.953 296.641 462.118 289.968 460.833 283.5C459.547 277.032 456.843 270.929 452.916 265.632C448.988 260.334 443.935 255.973 438.12 252.863C432.305 249.753 425.872 247.971 419.286 247.646C412.699 247.321 406.122 248.46 400.029 250.982L396.907 252.427C388.674 256.669 379.114 257.544 370.248 254.867C361.382 252.19 353.904 246.171 349.395 238.082L348.146 235.638C342.444 223.228 333.301 212.715 321.802 205.346C310.303 197.977 296.932 194.063 283.275 194.067V194.067ZM381.402 176.226C376.777 176.225 372.231 177.423 368.207 179.702C364.183 181.982 360.818 185.265 358.44 189.232C367.653 198.303 375.148 208.965 380.564 220.705C388.485 216.637 397.156 213.854 406.362 212.623C407.927 208.569 408.48 204.195 407.976 199.879C407.471 195.564 405.923 191.436 403.465 187.852C401.008 184.269 397.715 181.338 393.871 179.312C390.027 177.286 385.747 176.227 381.402 176.226V176.226Z" fill="#471B23"/>
</svg>
