<svg width="620" height="620" viewBox="0 0 620 620" fill="none" xmlns="http://www.w3.org/2000/svg">
<circle cx="310" cy="310" r="310" fill="white"/>
<path d="M461.821 252.396L376.083 157.477L164.598 252.396V368.409H461.821V252.396Z" stroke="#471B23" stroke-width="31" stroke-linecap="round" stroke-linejoin="round"/>
<path d="M164.598 253.355H331.292C331.895 253.355 332.385 253.845 332.385 254.448V288.111C332.385 303.334 344.726 315.676 359.95 315.676C375.174 315.676 387.515 303.334 387.515 288.111V254.448C387.515 253.845 388.005 253.355 388.608 253.355H461.821" stroke="#471B23" stroke-width="31" stroke-linecap="round" stroke-linejoin="round"/>
<path d="M169.392 310.467C163.624 313.351 158.249 316.414 153.308 319.636C130.258 334.669 116.659 353.181 116.659 373.202C116.659 423.507 202.511 464.287 308.416 464.287C414.32 464.287 500.172 423.507 500.172 373.202C500.172 352.693 485.902 333.768 461.821 318.543" stroke="#471B23" stroke-width="31"/>
</svg>
