<svg width="620" height="620" viewBox="0 0 620 620" fill="none" xmlns="http://www.w3.org/2000/svg">
<circle cx="310" cy="310" r="310" fill="white"/>
<path d="M212.498 301.674L293.71 220.463C300.888 213.286 310.623 209.255 320.774 209.255C330.924 209.255 340.659 213.286 347.838 220.463L401.985 274.629C409.161 281.807 413.193 291.542 413.193 301.693C413.193 311.843 409.161 321.578 401.985 328.757L320.774 409.968C313.595 417.144 303.86 421.176 293.71 421.176C283.559 421.176 273.824 417.144 266.646 409.968L212.498 355.783C205.322 348.604 201.291 338.869 201.291 328.719C201.291 318.568 205.322 308.833 212.498 301.655V301.674Z" stroke="#FD879D" stroke-width="35" stroke-linecap="round" stroke-linejoin="round"/>
<path d="M388.453 261.076L447.519 246.3C452.448 245.069 456.963 242.551 460.601 239.004C464.239 235.457 466.871 231.008 468.228 226.111C469.584 221.214 469.617 216.045 468.322 211.132C467.028 206.219 464.453 201.737 460.859 198.144L418.445 155.71C415.127 152.39 411.046 149.934 406.559 148.558C402.072 147.181 397.316 146.925 392.707 147.813C388.098 148.7 383.777 150.705 380.122 153.65C376.467 156.595 373.591 160.391 371.743 164.706L347.857 220.461" stroke="#FD879D" stroke-width="35" stroke-linecap="round" stroke-linejoin="round"/>
<path d="M253.114 396.414L238.338 455.481C237.106 460.41 234.588 464.925 231.041 468.563C227.494 472.201 223.045 474.833 218.149 476.189C213.252 477.546 208.083 477.579 203.17 476.284C198.256 474.99 193.774 472.414 190.181 468.821L147.748 426.407C144.428 423.089 141.972 419.008 140.595 414.521C139.218 410.034 138.962 405.277 139.85 400.668C140.738 396.059 142.742 391.738 145.687 388.084C148.633 384.429 152.429 381.552 156.744 379.705L212.499 355.818" stroke="#FD879D" stroke-width="35" stroke-linecap="round" stroke-linejoin="round"/>
</svg>
