<svg width="487" height="608" viewBox="0 0 487 608" fill="none" xmlns="http://www.w3.org/2000/svg">
<path d="M243.12 334.29C233.868 334.182 224.804 336.911 217.15 342.109C209.496 347.308 203.617 354.727 200.307 363.367C196.996 372.008 196.412 381.455 198.634 390.437C200.855 399.42 205.774 407.506 212.73 413.608V455.85C212.73 463.91 215.932 471.64 221.631 477.339C227.33 483.038 235.06 486.24 243.12 486.24C251.18 486.24 258.91 483.038 264.609 477.339C270.308 471.64 273.51 463.91 273.51 455.85V413.608C280.466 407.506 285.385 399.42 287.606 390.437C289.828 381.455 289.244 372.008 285.933 363.367C282.623 354.727 276.744 347.308 269.09 342.109C261.436 336.911 252.372 334.182 243.12 334.29V334.29ZM395.07 212.73V151.95C395.07 111.65 379.061 73.0013 350.565 44.5051C322.069 16.009 283.42 0 243.12 0C202.82 0 164.171 16.009 135.675 44.5051C107.179 73.0013 91.17 111.65 91.17 151.95V212.73C66.9902 212.73 43.8008 222.335 26.7031 239.433C9.60539 256.531 0 279.72 0 303.9V516.63C0 540.81 9.60539 563.999 26.7031 581.097C43.8008 598.195 66.9902 607.8 91.17 607.8H395.07C419.25 607.8 442.439 598.195 459.537 581.097C476.635 563.999 486.24 540.81 486.24 516.63V303.9C486.24 279.72 476.635 256.531 459.537 239.433C442.439 222.335 419.25 212.73 395.07 212.73ZM151.95 151.95C151.95 127.77 161.555 104.581 178.653 87.4831C195.751 70.3854 218.94 60.78 243.12 60.78C267.3 60.78 290.489 70.3854 307.587 87.4831C324.685 104.581 334.29 127.77 334.29 151.95V212.73H151.95V151.95ZM425.46 516.63C425.46 524.69 422.258 532.42 416.559 538.119C410.86 543.818 403.13 547.02 395.07 547.02H91.17C83.1101 547.02 75.3803 543.818 69.681 538.119C63.9818 532.42 60.78 524.69 60.78 516.63V303.9C60.78 295.84 63.9818 288.11 69.681 282.411C75.3803 276.712 83.1101 273.51 91.17 273.51H395.07C403.13 273.51 410.86 276.712 416.559 282.411C422.258 288.11 425.46 295.84 425.46 303.9V516.63Z" fill="white"/>
</svg>
