<svg width="546" height="546" viewBox="0 0 546 546" fill="none" xmlns="http://www.w3.org/2000/svg">
<path d="M479.57 159.25C475.639 152.439 470.01 146.764 463.232 142.776C456.454 138.789 448.758 136.627 440.895 136.5H149.695L136.5 85.0854C135.167 80.1222 132.193 75.7566 128.062 72.6997C123.931 69.6427 118.886 68.0745 113.75 68.2504H68.2504C62.2167 68.2504 56.4301 70.6473 52.1637 74.9137C47.8972 79.1802 45.5004 84.9667 45.5004 91.0004C45.5004 97.0341 47.8972 102.821 52.1637 107.087C56.4301 111.354 62.2167 113.75 68.2504 113.75H96.4604L159.25 347.165C160.584 352.129 163.558 356.494 167.689 359.551C171.82 362.608 176.864 364.176 182 364H386.75C390.952 363.988 395.067 362.812 398.641 360.603C402.215 358.395 405.107 355.24 406.998 351.488L481.618 202.248C484.852 195.469 486.358 187.994 486 180.492C485.643 172.989 483.434 165.692 479.57 159.25V159.25ZM372.645 318.5H199.29L162.208 182H440.895L372.645 318.5Z" fill="white"/>
<path d="M170.625 477.75C189.471 477.75 204.75 462.472 204.75 443.625C204.75 424.778 189.471 409.5 170.625 409.5C151.778 409.5 136.5 424.778 136.5 443.625C136.5 462.472 151.778 477.75 170.625 477.75Z" fill="white"/>
<path d="M398.125 477.75C416.971 477.75 432.25 462.472 432.25 443.625C432.25 424.778 416.971 409.5 398.125 409.5C379.278 409.5 364 424.778 364 443.625C364 462.472 379.278 477.75 398.125 477.75Z" fill="white"/>
</svg>
