<svg width="442" height="410" viewBox="0 0 442 410" fill="none" xmlns="http://www.w3.org/2000/svg">
<path d="M434.57 91.2504C430.639 84.4395 425.01 78.7636 418.232 74.7765C411.454 70.7893 403.758 68.627 395.895 68.5004H104.695L91.5004 17.0854C90.1672 12.1222 87.1929 7.75663 83.0619 4.69966C78.9308 1.6427 73.8865 0.0744719 68.7504 0.250403H23.2504C17.2167 0.250403 11.4301 2.64727 7.16369 6.91372C2.89723 11.1802 0.500366 16.9667 0.500366 23.0004C0.500366 29.0341 2.89723 34.8206 7.16369 39.0871C11.4301 43.3535 17.2167 45.7504 23.2504 45.7504H51.4604L114.25 279.165C115.584 284.129 118.558 288.494 122.689 291.551C126.82 294.608 131.864 296.176 137 296H341.75C345.952 295.988 350.067 294.812 353.641 292.603C357.215 290.395 360.107 287.24 361.998 283.488L436.618 134.248C439.852 127.469 441.358 119.994 441 112.492C440.643 104.989 438.434 97.6915 434.57 91.2504V91.2504ZM327.645 250.5H154.29L117.208 114H395.895L327.645 250.5Z" fill="#DE4A66"/>
<path d="M125.625 409.75C144.471 409.75 159.75 394.472 159.75 375.625C159.75 356.778 144.471 341.5 125.625 341.5C106.778 341.5 91.4996 356.778 91.4996 375.625C91.4996 394.472 106.778 409.75 125.625 409.75Z" fill="#DE4A66"/>
<path d="M353.125 409.75C371.971 409.75 387.25 394.472 387.25 375.625C387.25 356.778 371.971 341.5 353.125 341.5C334.278 341.5 319 356.778 319 375.625C319 394.472 334.278 409.75 353.125 409.75Z" fill="#DE4A66"/>
</svg>
